<svg height="69px" width="69px" version="1.1" id="Layer_1" xmlns="http://www.w3.org/2000/svg" xmlns:xlink="http://www.w3.org/1999/xlink" viewBox="0 0 511.999 511.999" xml:space="preserve" fill="#000000"><g id="SVGRepo_bgCarrier" stroke-width="0"></g><g id="SVGRepo_tracerCarrier" stroke-linecap="round" stroke-linejoin="round"></g><g id="SVGRepo_iconCarrier"> <circle style="fill:#59D8FF;" cx="256" cy="307.306" r="196.676"></circle> <path style="fill:#00C3F0;" d="M187.59,264.55c0-62.268,28.971-117.739,74.132-153.776c-1.906-0.055-3.804-0.144-5.723-0.144 c-108.622,0-196.676,88.054-196.676,196.676c0,108.621,88.054,196.676,196.676,196.676c46.353,0,88.927-16.075,122.544-42.9 C272.576,458.047,187.59,371.253,187.59,264.55z"></path> <path style="fill:#5B5D6E;" d="M354.338,42.22H157.661l-9.955,79.641c-1.631,13.05,6.872,25.222,19.687,28.178l77.069,17.785 c7.592,1.752,15.482,1.752,23.074,0l77.069-17.785c12.815-2.958,21.318-15.128,19.687-28.178L354.338,42.22z"></path> <path style="fill:#464655;" d="M361.559,99.989l-7.221-57.768H157.661l-9.955,79.641c-1.631,13.05,6.872,25.222,19.687,28.178 l77.07,17.785c3.796,0.875,7.666,1.314,11.537,1.314v-49.958L361.559,99.989z"></path> <path style="fill:#707487;" d="M256,8.016L55.47,45.151c-6.234,1.154-6.234,10.087,0,11.242L256,93.527l200.53-37.135 c6.234-1.154,6.234-10.087,0-11.242L256,8.016z"></path> <g> <circle style="fill:#5B5D6E;" cx="418.493" cy="153.385" r="17.102"></circle> <path style="fill:#5B5D6E;" d="M418.494,170.488L418.494,170.488c-9.446,0-17.102,7.656-17.102,17.102v42.756h34.205V187.59 C435.596,178.145,427.939,170.488,418.494,170.488z"></path> </g> <path d="M457.99,64.275c6.613-1.225,11.232-6.778,11.232-13.503s-4.619-12.278-11.232-13.503L257.46,0.134 c-0.965-0.179-1.954-0.179-2.919,0L54.01,37.268c-6.613,1.225-11.232,6.778-11.232,13.503S47.396,63.05,54.01,64.275l90.716,16.8 l-4.975,39.793c-0.728,5.818,0.068,11.486,2.089,16.594c-56.783,38.19-90.533,101.284-90.533,169.845 c0,112.869,91.825,204.693,204.693,204.693s204.693-91.824,204.693-204.693c0-68.561-33.75-131.655-90.533-169.845 c2.021-5.108,2.818-10.776,2.089-16.594l-4.975-39.793L457.99,64.275z M256,503.983c-108.622,0-196.676-88.054-196.676-196.676 c0-62.268,28.971-117.739,74.132-153.776c1.299-0.881,2.835-1.42,4.45-1.73l5.03-39.221l-90.716-16.8 c-2.06-0.38-3.5-2.112-3.5-4.267s1.44-3.887,3.5-4.267L256,8.016l200.53,37.135c2.06,0.38,3.5,2.112,3.5,4.267s-1.44,3.887-3.5,4.267 l-90.716,16.8l5.03,39.221c1.615,0.31,3.151,0.849,4.45,1.73c45.161,36.037,74.132,91.508,74.132,153.776 C452.676,415.929,364.622,503.983,256,503.983z"></path> <path d="M418.494,145.368c-4.723,0-8.551,3.828-8.551,8.551c0,4.723,3.828,8.551,8.551,8.551c4.723,0,8.551-3.828,8.551-8.551 C427.045,149.196,423.217,145.368,418.494,145.368z"></path> <path d="M418.494,178.505c-4.723,0-8.551,3.828-8.551,8.551v25.654h17.102v-25.654C427.045,182.333,423.217,178.505,418.494,178.505z"></path> <path d="M354.338,50.237l-7.221,57.768h-1.546l-11.537,49.958h-0.002h-0.002l-11.537-49.958h-1.546l-7.221-57.768h-172.01l-9.955,79.641 c-0.815,6.525,3.436,12.611,9.843,14.089l77.069,17.785c3.796,0.875,7.74,1.314,11.71,1.314c3.97,0,7.914-0.439,11.71-1.314 l77.069-17.785c6.407-1.478,10.658-7.564,9.843-14.089L354.338,50.237z M256,145.368c-3.97,0-7.914-0.439-11.71-1.314 L167.22,126.269c-2.29-0.528-4.029-2.521-3.796-4.834l8.849-70.793h167.454l8.849,70.793c0.233,2.313-1.506,4.306-3.796,4.834 l-77.069,17.785C263.914,144.929,259.97,145.368,256,145.368z"></path> </g></svg>